<svg width="0" height="0" class="hidden">
  <symbol fill="#fff" xmlns="http://www.w3.org/2000/svg" viewBox="0 0 24 24" id="linkedin">
    <path d="M19 0h-14c-2.761 0-5 2.239-5 5v14c0 2.761 2.239 5 5 5h14c2.762 0 5-2.239 5-5v-14c0-2.761-2.238-5-5-5zm-11 19h-3v-11h3v11zm-1.5-12.268c-.966 0-1.75-.79-1.75-1.764s.784-1.764 1.75-1.764 1.75.79 1.75 1.764-.783 1.764-1.75 1.764zm13.5 12.268h-3v-5.604c0-3.368-4-3.113-4 0v5.604h-3v-11h3v1.765c1.396-2.586 7-2.777 7 2.476v6.759z"></path>
  </symbol>
  <symbol fill="#fff" xmlns="http://www.w3.org/2000/svg" viewBox="0 0 30 30" id="twitter">
    <path d="M28,6.937c-0.957,0.425-1.985,0.711-3.064,0.84c1.102-0.66,1.947-1.705,2.345-2.951c-1.03,0.611-2.172,1.055-3.388,1.295 c-0.973-1.037-2.359-1.685-3.893-1.685c-2.946,0-5.334,2.389-5.334,5.334c0,0.418,0.048,0.826,0.138,1.215 c-4.433-0.222-8.363-2.346-10.995-5.574C3.351,6.199,3.088,7.115,3.088,8.094c0,1.85,0.941,3.483,2.372,4.439 c-0.874-0.028-1.697-0.268-2.416-0.667c0,0.023,0,0.044,0,0.067c0,2.585,1.838,4.741,4.279,5.23 c-0.447,0.122-0.919,0.187-1.406,0.187c-0.343,0-0.678-0.034-1.003-0.095c0.679,2.119,2.649,3.662,4.983,3.705 c-1.825,1.431-4.125,2.284-6.625,2.284c-0.43,0-0.855-0.025-1.273-0.075c2.361,1.513,5.164,2.396,8.177,2.396 c9.812,0,15.176-8.128,15.176-15.177c0-0.231-0.005-0.461-0.015-0.69C26.38,8.945,27.285,8.006,28,6.937z"></path>
  </symbol>
  <symbol enable-background="new 0 0 128 128" id="codepen" version="1.1" xml:space="preserve" xmlns="http://www.w3.org/2000/svg" xmlns:xlink="http://www.w3.org/1999/xlink" viewBox="0 0 128 128">
    <g id="_x36__stroke">
      <g id="Codepen">
        <rect clip-rule="evenodd" fill="none" fill-rule="evenodd" height="128" width="128"></rect>
        <path clip-rule="evenodd" d="M117,73.204L103.24,64L117,54.796V73.204z     M69.5,112.22V86.568L93.348,70.62l19.248,12.872L69.5,112.22z M64,77.012L44.548,64L64,50.988L83.456,64L64,77.012z M58.5,112.22    L15.404,83.492L34.656,70.62L58.5,86.568V112.22z M11,54.796L24.764,64L11,73.204V54.796z M58.5,15.78v25.652L34.656,57.384    L15.404,44.508L58.5,15.78z M69.5,15.78l43.096,28.728L93.348,57.384L69.5,41.432V15.78z M127.952,43.784    c-0.012-0.084-0.032-0.16-0.044-0.24c-0.028-0.156-0.056-0.312-0.096-0.46c-0.024-0.092-0.06-0.18-0.088-0.268    c-0.044-0.136-0.088-0.268-0.14-0.4c-0.036-0.092-0.08-0.184-0.124-0.268c-0.056-0.128-0.116-0.248-0.188-0.364    c-0.048-0.088-0.104-0.172-0.156-0.256c-0.072-0.116-0.148-0.228-0.232-0.336c-0.06-0.08-0.124-0.16-0.188-0.236    c-0.088-0.104-0.18-0.204-0.276-0.3c-0.072-0.072-0.14-0.148-0.216-0.212c-0.104-0.092-0.208-0.18-0.312-0.264    c-0.084-0.064-0.164-0.128-0.248-0.188c-0.032-0.02-0.06-0.048-0.092-0.068l-58.5-39c-1.848-1.232-4.252-1.232-6.104,0l-58.496,39    c-0.032,0.02-0.06,0.048-0.092,0.068c-0.088,0.06-0.168,0.124-0.248,0.188C2.004,40.264,1.9,40.352,1.8,40.444    c-0.076,0.064-0.148,0.14-0.22,0.212c-0.096,0.096-0.188,0.196-0.272,0.3c-0.068,0.076-0.132,0.156-0.192,0.236    c-0.08,0.108-0.156,0.22-0.228,0.336c-0.056,0.084-0.108,0.168-0.16,0.256C0.66,41.9,0.6,42.02,0.54,42.148    c-0.04,0.084-0.084,0.176-0.12,0.268c-0.056,0.132-0.1,0.264-0.144,0.4c-0.028,0.088-0.06,0.176-0.084,0.268    c-0.04,0.148-0.068,0.304-0.096,0.46c-0.016,0.08-0.036,0.156-0.044,0.24C0.02,44.016,0,44.256,0,44.5v39    c0,0.24,0.02,0.48,0.052,0.72c0.008,0.076,0.028,0.156,0.044,0.236c0.028,0.156,0.056,0.308,0.096,0.46    c0.024,0.092,0.056,0.18,0.084,0.268c0.044,0.132,0.088,0.268,0.144,0.404c0.036,0.088,0.08,0.176,0.12,0.264    c0.06,0.124,0.12,0.244,0.188,0.368c0.052,0.084,0.104,0.168,0.16,0.252c0.072,0.116,0.148,0.224,0.228,0.332    c0.06,0.084,0.124,0.164,0.192,0.24c0.084,0.1,0.176,0.204,0.272,0.296c0.072,0.076,0.144,0.148,0.22,0.216    c0.1,0.092,0.204,0.18,0.312,0.264c0.08,0.064,0.16,0.128,0.248,0.188c0.032,0.02,0.06,0.048,0.092,0.068l58.496,39    C61.872,127.692,62.936,128,64,128s2.128-0.308,3.052-0.924l58.5-39c0.032-0.02,0.06-0.048,0.092-0.068    c0.084-0.06,0.164-0.124,0.248-0.188c0.104-0.084,0.208-0.172,0.312-0.264c0.076-0.068,0.144-0.14,0.216-0.216    c0.096-0.092,0.188-0.196,0.276-0.296c0.064-0.076,0.128-0.156,0.188-0.24c0.084-0.108,0.16-0.216,0.232-0.332    c0.052-0.084,0.108-0.168,0.156-0.252c0.072-0.124,0.132-0.244,0.188-0.368c0.044-0.088,0.088-0.176,0.124-0.264    c0.052-0.136,0.096-0.272,0.14-0.404c0.028-0.088,0.064-0.176,0.088-0.268c0.04-0.152,0.068-0.304,0.096-0.46    c0.012-0.08,0.032-0.16,0.044-0.236c0.032-0.24,0.048-0.48,0.048-0.72v-39C128,44.256,127.984,44.016,127.952,43.784z" fill="#fff" fill-rule="evenodd" id="Codepen_1_"></path>
      </g>
    </g>
  </symbol>
  <symbol fill="#fff" xmlns="http://www.w3.org/2000/svg" viewBox="0 0 24 24" id="github">
    <path d="M12 0c-6.626 0-12 5.373-12 12 0 5.302 3.438 9.8 8.207 11.387.599.111.793-.261.793-.577v-2.234c-3.338.726-4.033-1.416-4.033-1.416-.546-1.387-1.333-1.756-1.333-1.756-1.089-.745.083-.729.083-.729 1.205.084 1.839 1.237 1.839 1.237 1.07 1.834 2.807 1.304 3.492.997.107-.775.418-1.305.762-1.604-2.665-.305-5.467-1.334-5.467-5.931 0-1.311.469-2.381 1.236-3.221-.124-.303-.535-1.524.117-3.176 0 0 1.008-.322 3.301 1.23.957-.266 1.983-.399 3.003-.404 1.02.005 2.047.138 3.006.404 2.291-1.552 3.297-1.23 3.297-1.23.653 1.653.242 2.874.118 3.176.77.84 1.235 1.911 1.235 3.221 0 4.609-2.807 5.624-5.479 5.921.43.372.823 1.102.823 2.222v3.293c0 .319.192.694.801.576 4.765-1.589 8.199-6.086 8.199-11.386 0-6.627-5.373-12-12-12z"></path>
  </symbol>
</svg>