<svg width="0" height="0" class="hidden">
  <symbol fill="#fff" version="1.1" id="website" xmlns="http://www.w3.org/2000/svg" xmlns:xlink="http://www.w3.org/1999/xlink" x="0px" y="0px" xml:space="preserve" viewBox="0 0 64 64">
    <g>
      <path d="M20.5,19.4l-1.2,2.4l-1-2c-0.3-0.7-1-1.1-1.8-1.1s-1.5,0.4-1.8,1.1l-1,2l-1.2-2.4c-0.4-0.9-1.5-1.2-2.3-0.8
		c-0.9,0.4-1.2,1.5-0.8,2.3l2.5,5.1c0.3,0.7,1,1.1,1.8,1.1c0.8,0,1.5-0.4,1.8-1.1l1-2l1,2c0.3,0.7,1,1.1,1.8,1.1
		c0.8,0,1.5-0.4,1.8-1.1l2.5-5.1c0.4-0.9,0.1-1.9-0.8-2.3C22,18.1,20.9,18.5,20.5,19.4z"></path>
      <path d="M38.3,18.6c-0.9-0.4-1.9-0.1-2.3,0.8l-1.2,2.4l-1-2c-0.3-0.7-1-1.1-1.8-1.1c-0.8,0-1.5,0.4-1.8,1.1l-1,2L28,19.4
		c-0.4-0.9-1.5-1.2-2.3-0.8c-0.9,0.4-1.2,1.5-0.8,2.3l2.5,5.1c0.3,0.7,1,1.1,1.8,1.1c0.8,0,1.5-0.4,1.8-1.1l1-2l1,2
		c0.3,0.7,1,1.1,1.8,1.1c0,0,0,0,0,0c0.8,0,1.5-0.4,1.8-1.1l2.5-5.1C39.6,20.1,39.2,19,38.3,18.6z"></path>
      <path d="M46.5,26l1-2l1,2c0.3,0.7,1,1.1,1.8,1.1s1.5-0.4,1.8-1.1l2.5-5.1c0.4-0.9,0.1-1.9-0.8-2.3c-0.9-0.4-1.9-0.1-2.3,0.8
		l-1.2,2.4l-1-2c-0.3-0.7-1-1.1-1.8-1.1c-0.8,0-1.5,0.4-1.8,1.1l-1,2l-1.2-2.4c-0.4-0.9-1.5-1.2-2.3-0.8c-0.9,0.4-1.2,1.5-0.8,2.3
		l2.5,5.1c0.3,0.7,1,1.1,1.8,1.1C45.5,27.2,46.2,26.7,46.5,26z"></path>
      <path d="M58.4,7.8H5.6c-2.4,0-4.3,2-4.3,4.4v21.2c0,2.4,1.9,4.4,4.3,4.4h31.7c1,0,1.8-0.8,1.8-1.8s-0.8-1.8-1.8-1.8H5.6
		c-0.4,0-0.8-0.4-0.8-0.9V12.2c0-0.5,0.4-0.9,0.8-0.9h52.9c0.4,0,0.8,0.4,0.8,0.9v21.2c0,0.5-0.4,0.9-0.9,0.9c-1,0-1.8,0.8-1.8,1.8
		s0.8,1.8,1.8,1.8c2.4,0,4.4-2,4.4-4.4V12.2C62.8,9.8,60.8,7.8,58.4,7.8z"></path>
      <path d="M61.1,44.3L47,37.2c-1-0.5-2.1-0.4-2.9,0.4c-0.7,0.7-0.9,1.9-0.4,2.9l7.1,14.1c0.5,1,1.5,1.6,2.5,1.6c0,0,0,0,0.1,0
		c0.9,0,1.7-0.6,2.1-1.4l1.8-4.1l4.1-1.8c0.8-0.4,1.4-1.2,1.4-2.1C62.7,45.8,62.1,44.8,61.1,44.3z M54.6,48.1l-1.5,3.3l-4.8-9.6
		l9.6,4.8L54.6,48.1z"></path>
    </g>
  </symbol>
  <symbol fill="#fff" version="1.1" id="code" xmlns="http://www.w3.org/2000/svg" xmlns:xlink="http://www.w3.org/1999/xlink" x="0px" y="0px" xml:space="preserve" viewBox="0 0 64 64">
    <g>
      <path d="M18.6,16c0.6-0.7,0.6-1.8-0.1-2.5c-0.7-0.6-1.8-0.6-2.5,0.1L2.4,28.9c-1.5,1.7-1.5,4.4,0,6.1L16,50.4
		c0.3,0.4,0.8,0.6,1.3,0.6c0.4,0,0.8-0.1,1.2-0.4c0.7-0.6,0.8-1.8,0.1-2.5L5,32.7c-0.3-0.4-0.3-1.1,0-1.5L18.6,16z"></path>
      <path d="M61.6,28.9L48,13.6c-0.6-0.7-1.7-0.8-2.5-0.1c-0.7,0.6-0.8,1.7-0.1,2.5L59,31.3c0.3,0.4,0.3,1.1,0,1.5L45.4,48
		c-0.6,0.7-0.6,1.8,0.1,2.5c0.3,0.3,0.8,0.4,1.2,0.4c0.5,0,1-0.2,1.3-0.6l13.6-15.3C63.1,33.3,63.1,30.7,61.6,28.9z"></path>
      <path d="M38,14c-0.9-0.3-1.9,0.2-2.2,1.1l-11,32.7C24.6,48.7,25,49.7,26,50c0.2,0.1,0.4,0.1,0.6,0.1c0.7,0,1.4-0.5,1.7-1.2l11-32.7
		C39.4,15.3,39,14.3,38,14z"></path>
    </g>
  </symbol>
  <symbol fill="#fff" version="1.1" id="adobe" xmlns="http://www.w3.org/2000/svg" xmlns:xlink="http://www.w3.org/1999/xlink" x="0px" y="0px" xml:space="preserve" viewBox="0 0 64 64">
    <path d="M40,6.1h23v51.6L40,6.1z M24,6.1H1v51.6L24,6.1z M32,25.4l14.4,32.6h-9.7l-4.2-10.4H21.9L32,25.4z"></path>
  </symbol>
  <symbol fill="#fff" xmlns="http://www.w3.org/2000/svg" viewBox="0 0 64 64" id="css3">
    <path d="M49.2001 15.0999C48.5001 14.2999 47.5001 13.8999 46.4001 13.8999H15.6C14.6 13.8999 13.8 14.6999 13.8 15.6999C13.8 16.6999 14.6 17.4999 15.6 17.4999H46.4001C46.5001 17.4999 46.6 17.4999 46.6 17.4999C46.6 17.5999 46.6 17.5999 46.6 17.5999L45.2001 25.1999H18.4C17.4 25.1999 16.6 25.9999 16.6 26.9999C16.6 27.9999 17.4 28.7999 18.4 28.7999H44.7001L42.5 41.3999L32.7001 44.8999L22.9 41.3999L21.6 35.0999C21.4 34.1999 20.5 33.4999 19.5 33.6999C18.6 33.8999 17.9 34.7999 18.1 35.7999L19.4 42.1999C19.6 43.2999 20.4 44.1999 21.4 44.4999L31.5 48.0999C31.8 48.1999 32.2 48.2999 32.6 48.2999C33 48.2999 33.3001 48.1999 33.7001 48.0999L43.8 44.4999C44.9 44.0999 45.6 43.1999 45.8 42.0999L50.1 18.1999C50.3 17.0999 50.0001 16.0999 49.2001 15.0999Z" fill="white"></path>
    <path d="M59.9 2.79995C58.5 1.19995 56.4 0.199951 54.2 0.199951H9.79999C7.59999 0.199951 5.59999 1.09995 4.09999 2.79995C2.69999 4.39995 1.99999 6.59995 2.29999 8.79995L7.59999 53.0999C7.99999 56.2999 10.3 58.8999 13.4 59.5999L30.3 63.5999C30.9 63.6999 31.5 63.7999 32 63.7999C32.5 63.7999 33.2 63.6999 33.7 63.5999L50.6 59.5999C53.7 58.8999 56 56.2999 56.4 53.0999L61.7 8.79995C62 6.59995 61.3 4.39995 59.9 2.79995ZM58.3 8.29995L53 52.5999C52.8 54.2999 51.5 55.6999 49.9 56.0999L33 60.0999C32.4 60.1999 31.7 60.1999 31.1 60.0999L14.2 56.0999C12.5 55.6999 11.3 54.2999 11.1 52.5999L5.69999 8.29995C5.59999 7.19995 5.99999 5.99995 6.79999 5.09995C7.59999 4.19995 8.69999 3.69995 9.89999 3.69995H54.2C55.4 3.69995 56.5 4.19995 57.3 5.09995C58 5.99995 58.4 7.19995 58.3 8.29995Z" fill="white"></path>
  </symbol>
  <symbol fill="#fff" version="1.1" id="python" xmlns="http://www.w3.org/2000/svg" xmlns:xlink="http://www.w3.org/1999/xlink" x="0px" y="0px" xml:space="preserve" viewBox="0 0 64 64">
    <path d="M61.7,24c-1.1-4.2-3.1-7.5-7.3-7.5h-5.6v6.6c0,5.1-4.4,9.4-9.1,9.4H24.8c-4.1,0-7.3,3.5-7.3,7.6v14.1c0,3.9,3.5,6.3,7.3,7.6
	c4.6,1.4,9.1,1.7,14.8,0c3.7-1.1,7.3-3.2,7.3-7.6v-5.6H32.2v-1.8h22.2c4.2,0,5.9-3,7.3-7.5C63.2,34.4,63.2,29.9,61.7,24L61.7,24z
	 M40.5,52c1.5,0,2.8,1.3,2.8,2.8c0,1.5-1.3,2.8-2.8,2.8c-1.5,0.1-2.8-1.3-2.8-2.8C37.6,53.3,38.9,52,40.5,52z M24.1,30.6h14.8
	c4.1,0,7.3-3.4,7.3-7.6V9.1c0-3.9-3.4-6.9-7.3-7.6c-4.9-0.7-10.3-0.7-14.8,0c-6.3,1.1-7.3,3.4-7.3,7.6v5.6h14.8v1.8H11.4
	c-4.2,0-8,2.7-9.1,7.5c-1.4,5.6-1.4,9.1,0,14.9c1.1,4.4,3.5,7.5,7.9,7.5H15v-6.7C14.9,34.8,19.2,30.6,24.1,30.6L24.1,30.6z
	 M23.2,10.9c-1.5,0-2.8-1.3-2.8-2.8s1.3-2.8,2.8-2.8c1.5,0,2.8,1.3,2.8,2.8S24.7,10.9,23.2,10.9z"></path>
  </symbol>
  <symbol fill="#fff" version="1.1" id="react" xmlns="http://www.w3.org/2000/svg" xmlns:xlink="http://www.w3.org/1999/xlink" x="0px" y="0px" xml:space="preserve" viewBox="0 0 64 64">
    <path d="M51.6,22.6c-0.7-0.1-1.3-0.4-2-0.6c0.1-0.4,0.1-0.8,0.3-1.4c1.4-7.2,0.4-12.9-2.8-14.9c-3.2-1.8-8.4,0.1-13.6,4.6
	c-0.4,0.4-1.1,0.8-1.5,1.4c-0.3-0.3-0.7-0.6-1-1c-5.5-4.9-10.9-6.9-14.3-5c-3.2,1.8-4.2,7.3-2.8,14c0.1,0.7,0.3,1.4,0.4,2
	c-0.7,0.1-1.5,0.4-2.2,0.7C5.6,24.7,1,28.4,1,31.9c0,3.8,4.9,7.6,11.6,9.8c0.6,0.1,1.1,0.4,1.7,0.4c-0.1,0.7-0.4,1.4-0.4,2.2
	c-1.3,6.6-0.3,11.9,2.9,13.7c3.2,2,8.8,0,14-4.8c0.4-0.4,0.8-0.7,1.3-1.1c0.4,0.4,1.1,1,1.7,1.4c5,4.5,10.2,6.3,13.5,4.5
	c3.2-2,4.3-7.6,2.9-14.6c-0.1-0.4-0.1-1.1-0.4-1.7c0.4-0.1,0.7-0.1,1.1-0.4c7-2.1,12.1-5.9,12.1-9.7C62.9,28.5,58.1,24.9,51.6,22.6
	L51.6,22.6z M35.2,12.4c4.5-3.9,8.7-5.3,10.7-4.3c2,1.1,2.8,5.9,1.5,12.2c-0.1,0.4-0.1,0.7-0.3,1.3c-2.7-0.6-5.3-1.1-8.1-1.3
	c-1.5-2.2-3.2-4.5-5-6.3C34.4,13.2,34.8,12.8,35.2,12.4z M21.3,38.3c0.6,1.1,1.3,2.1,2,3.1c-2-0.1-3.8-0.4-5.6-0.8
	c0.4-1.7,1.1-3.5,2-5.3C20.1,36.2,20.8,37.4,21.3,38.3L21.3,38.3z M17.7,23.9c1.7-0.4,3.5-0.7,5.5-1c-0.7,1-1.3,2-1.8,3.1
	s-1.1,2-1.7,3.2C18.8,27.3,18.3,25.6,17.7,23.9L17.7,23.9z M20.9,32.2c0.7-1.7,1.7-3.2,2.7-4.9c1-1.7,2-3.2,2.9-4.8
	c1.8-0.1,3.6-0.1,5.5-0.1c1.8,0,3.8,0.1,5.5,0.1c1.1,1.5,2,3.1,2.9,4.6c1,1.5,1.8,3.2,2.7,4.9c-0.7,1.7-1.7,3.2-2.7,4.9
	c-1,1.7-2,3.2-2.9,4.8c-1.8,0.1-3.6,0.1-5.6,0.1s-3.8-0.1-5.5-0.1c-1.1-1.5-2-3.1-2.9-4.8S21.8,33.9,20.9,32.2L20.9,32.2z
	 M42.7,38.3c0.6-1.1,1.1-2.1,1.7-3.2c0.7,1.7,1.4,3.5,2,5.3c-1.8,0.4-3.8,0.7-5.8,1C41.4,40.4,42.1,39.3,42.7,38.3L42.7,38.3z
	 M44.5,29.1c-0.6-1.1-1.1-2.1-1.7-3.2s-1.3-2-1.8-2.9c2,0.3,3.8,0.6,5.5,1C45.9,25.7,45.2,27.4,44.5,29.1z M32,15.6
	c1.3,1.4,2.4,2.8,3.5,4.3c-2.4-0.1-4.8-0.1-7.2,0C29.6,18.3,30.9,16.9,32,15.6z M18,8.2c2-1.1,6.6,0.4,11.2,4.8
	c0.3,0.3,0.6,0.6,1,0.8c-1.8,2-3.5,4.2-5.2,6.3c-2.7,0.3-5.5,0.7-8.1,1.3c-0.1-0.6-0.3-1.3-0.4-1.8C15.4,13.7,16.1,9.3,18,8.2
	L18,8.2z M15.2,40c-0.4-0.1-1-0.3-1.5-0.4C11,38.9,8.2,37.5,6,35.8c-1.4-1-2.1-2.2-2.4-3.6c0-2.2,3.9-5,9.4-7
	c0.7-0.3,1.4-0.4,2.1-0.7c0.8,2.7,1.8,5.2,2.9,7.7C17,34.7,15.9,37.2,15.2,40z M29.1,51.7c-2,1.8-4.3,3.2-6.9,4.2
	c-1.4,0.7-2.9,0.7-4.2,0.1c-2-1.1-2.7-5.3-1.7-11.1c0.1-0.7,0.3-1.4,0.4-2c2.7,0.6,5.5,1,8.1,1.1c1.5,2.2,3.4,4.5,5.2,6.5
	C29.9,51.1,29.5,51.4,29.1,51.7L29.1,51.7z M32.1,48.9c-1.3-1.4-2.4-2.8-3.6-4.3c1.1,0,2.2,0.1,3.5,0.1s2.5,0,3.6-0.1
	C34.5,45.9,33.4,47.3,32.1,48.9z M47.9,52.4c-0.1,1.4-0.8,2.9-2,3.8c-2,1.1-6-0.3-10.4-4.2c-0.4-0.4-1-0.8-1.5-1.4
	c1.8-2,3.5-4.2,5-6.5c2.8-0.1,5.5-0.7,8.1-1.3c0.1,0.4,0.1,1,0.3,1.4C48.1,47,48.1,49.8,47.9,52.4L47.9,52.4z M50.1,39.5
	c-0.3,0.1-0.7,0.1-1.1,0.3c-0.8-2.7-2-5.2-3.1-7.7c1.1-2.4,2.1-5,2.9-7.6c0.7,0.1,1.3,0.4,1.8,0.6c5.6,2,9.5,4.8,9.5,7
	C60.2,34.4,56.1,37.5,50.1,39.5z M32,37.6c3.1,0,5.5-2.5,5.5-5.5s-2.5-5.5-5.5-5.5c-2.9,0-5.5,2.5-5.5,5.5S28.9,37.6,32,37.6
	L32,37.6z"></path>
  </symbol>
</svg>